HIERARCHY
ROOT Hips
{
  OFFSET 0.000000 0.000000 0.000000
  CHANNELS 6 Xposition Yposition Zposition Zrotation Xrotation Yrotation
  JOINT Spine1
  {
    OFFSET 0.000000 0.000000 0.000000
    CHANNELS 3 Zrotation Xrotation Yrotation
    JOINT Spine2
    {
      OFFSET -0.000000 4.400000 -0.396350
      CHANNELS 3 Zrotation Xrotation Yrotation
      JOINT Chest
      {
        OFFSET 0.000000 0.000000 0.000000
        CHANNELS 3 Zrotation Xrotation Yrotation
        JOINT LeftShoulder
        {
          OFFSET 10.022000 24.778000 0.395630
          CHANNELS 3 Zrotation Xrotation Yrotation
          JOINT LeftArm
          {
            OFFSET 4.424000 -11.703100 -0.000000
            CHANNELS 3 Zrotation Xrotation Yrotation
            JOINT LeftForeArm
            {
              OFFSET 0.000000 -8.051800 1.578300
              CHANNELS 3 Zrotation Xrotation Yrotation
              JOINT LeftHand
              {
                OFFSET 0.188791 -1.000000 18.400000
                CHANNELS 3 Zrotation Xrotation Yrotation
                End Site
                {
                  OFFSET 0 0 1
                }
              }
            }
          }
        }
        JOINT RightShoulder
        {
          OFFSET -10.021000 24.778000 0.395630
          CHANNELS 3 Zrotation Xrotation Yrotation
          JOINT RightArm
          {
            OFFSET -4.424000 -11.703100 -0.000000
            CHANNELS 3 Zrotation Xrotation Yrotation
            JOINT RightForeArm
            {
              OFFSET 0.000000 -8.051800 1.578300
              CHANNELS 3 Zrotation Xrotation Yrotation
              JOINT RightHand
              {
                OFFSET -0.188791 -1.000000 18.400000
                CHANNELS 3 Zrotation Xrotation Yrotation
                End Site
                {
                  OFFSET 0 0 1
                }
              }
            }
          }
        }
      }
    }
  }
  JOINT LeftLeg
  {
    OFFSET 11.645200 -25.728500 2.500100
    CHANNELS 3 Zrotation Xrotation Yrotation
    JOINT LeftShin
    {
      OFFSET 0.214890 -17.734000 -7.827300
      CHANNELS 3 Zrotation Xrotation Yrotation
      JOINT LeftFoot
      {
        OFFSET -0.009445 -31.756800 -0.000000
        CHANNELS 3 Zrotation Xrotation Yrotation
        JOINT LeftToeBase
        {
          OFFSET 0.000000 -3.500000 14.000000
          CHANNELS 3 Zrotation Xrotation Yrotation
          End Site
          {
            OFFSET 0 0 1
          }
        }
      }
    }
  }
  JOINT RightLeg
  {
    OFFSET -11.645200 -25.728500 2.500100
    CHANNELS 3 Zrotation Xrotation Yrotation
    JOINT RightShin
    {
      OFFSET -0.214890 -17.734000 -7.827300
      CHANNELS 3 Zrotation Xrotation Yrotation
      JOINT RightFoot
      {
        OFFSET 0.009444 -31.756800 -0.000000
        CHANNELS 3 Zrotation Xrotation Yrotation
        JOINT RightToeBase
        {
          OFFSET 0.000000 -3.500000 14.000000
          CHANNELS 3 Zrotation Xrotation Yrotation
          End Site
          {
            OFFSET 0 0 1
          }
        }
      }
    }
  }
}
MOTION
Frames: 13
Frame Time: 0.033333333
0.000000 77.960152 0.000000 0.135850 -2.728521 0.000002 -0.000000 0.000000 -0.801741 0.437936 0.000000 -0.000000 -0.000000 8.786698 -0.000000 16.002568 -3.322972 -0.011439 -1.211473 -0.000000 -25.605391 -0.000002 68.000686 0.000002 4.891295 -2.312186 -1.858894 -16.003206 -0.121218 0.011420 2.928519 -0.000000 23.865748 0.000003 72.167682 -0.000004 -7.983105 1.406575 -6.767304 0.271313 -2.930985 15.400137 0.000000 9.787127 -0.000000 0.633891 -4.369831 0.048300 0.476245 0.148124 -15.341941 -0.653561 -3.499802 -16.145444 0.000000 10.427036 -0.000001 -0.500462 -6.162426 -0.053724 -0.735104 1.862788 16.122556
0.011912 77.959846 0.029049 0.114260 -2.777465 0.011435 -0.000000 0.000000 -0.999832 0.433468 0.000000 0.000000 -0.000000 8.789679 -0.000000 16.002484 -3.743458 -0.011444 -1.559933 -0.000000 -25.446763 -0.000002 68.598537 0.000001 5.228729 -2.810596 -0.988960 -16.003131 -0.505860 0.011420 3.243957 -0.000000 23.212135 -0.000001 72.464442 -0.000000 -7.851995 1.699387 -8.409704 0.255920 -2.753125 15.384773 -0.000000 9.564869 0.000000 0.603548 -4.261656 0.044852 0.507080 0.128217 -15.340636 -0.590254 -3.295595 -16.078576 -0.000000 10.154553 0.000001 -0.532857 -6.026547 -0.055946 -0.692368 1.840250 16.046082
0.026183 77.965973 0.074422 0.091624 -2.815930 0.011105 0.000000 0.000000 -1.166593 0.421828 0.000000 -0.000000 0.000000 8.737789 0.000000 16.002497 -3.679039 -0.011443 -1.568384 0.000000 -25.406565 0.000003 68.556241 -0.000003 5.415544 -3.060844 -0.474333 -16.003152 -0.404964 0.011420 3.181802 0.000000 22.811292 -0.000000 72.153971 0.000000 -7.522003 1.980429 -8.905123 0.273456 -2.690307 15.369942 -0.000000 9.598849 -0.000001 0.585984 -4.286061 0.043797 0.521724 0.094073 -15.326545 -0.549438 -3.135113 -16.090396 0.000000 9.973505 -0.000000 -0.537133 -5.935093 -0.055543 -0.673040 1.807285 16.058974
0.032404 77.973221 0.115515 0.074267 -2.893576 -0.008275 -0.000000 -0.000000 -1.258690 0.403607 -0.000000 -0.000000 -0.000000 8.753966 0.000000 16.002497 -3.673983 -0.011443 -1.545104 -0.000000 -25.472601 -0.000002 68.541375 0.000001 5.523158 -3.182780 -0.172927 -16.003147 -0.427420 0.011420 3.107787 -0.000000 22.828176 0.000001 71.994408 -0.000002 -7.484689 2.208970 -8.561183 0.285731 -2.580680 15.360626 -0.000000 9.638490 0.000000 0.615907 -4.331863 0.046523 0.486606 0.068468 -15.299219 -0.516325 -2.941795 -16.082898 0.000000 9.815386 -0.000001 -0.559566 -5.816487 -0.056709 -0.633966 1.731147 16.071163
0.043695 77.975830 0.152147 0.057295 -2.981015 -0.022487 0.000000 -0.000000 -1.218418 0.398507 0.000000 -0.000000 0.000000 8.805807 0.000000 16.002483 -3.752180 -0.011444 -1.508662 -0.000000 -25.577933 -0.000006 68.566863 0.000006 5.600912 -3.245482 -0.046191 -16.003125 -0.537676 0.011420 3.025751 -0.000000 23.235394 -0.000002 72.058105 0.000002 -7.805240 2.502753 -7.819068 0.300656 -2.463229 15.359747 -0.000000 9.676657 0.000001 0.600232 -4.349081 0.045519 0.495541 0.018216 -15.285144 -0.487408 -2.758256 -16.094368 0.000000 9.693303 -0.000000 -0.587654 -5.768454 -0.059066 -0.592790 1.709096 16.097912
0.054457 77.976097 0.190482 0.049355 -3.091179 -0.033241 -0.000000 -0.000000 -1.157295 0.407656 -0.000000 0.000000 -0.000000 8.891074 0.000000 16.002459 -3.867487 -0.011446 -1.487572 0.000000 -25.739549 0.000000 68.590814 -0.000001 5.679535 -3.267366 -0.006021 -16.003101 -0.649850 0.011421 2.981940 -0.000000 23.717146 -0.000002 72.196576 0.000002 -8.020037 2.717868 -7.118514 0.294621 -2.283492 15.368493 0.000000 9.634897 -0.000001 0.619038 -4.363781 0.047104 0.472153 0.003874 -15.284869 -0.481051 -2.571526 -16.130689 -0.000000 9.628081 -0.000000 -0.580308 -5.745433 -0.058094 -0.581558 1.677219 16.146268
0.071653 77.973099 0.231755 0.034445 -3.192592 -0.050673 0.000000 -0.000000 -1.108290 0.435801 0.000000 -0.000000 0.000000 8.929326 -0.000000 16.002443 -3.939757 -0.011447 -1.479869 0.000000 -25.779690 0.000004 68.598121 -0.000005 5.753264 -3.280956 0.013013 -16.003104 -0.628757 0.011421 2.970526 0.000000 23.918840 0.000001 72.219411 -0.000001 -8.034936 2.768285 -6.594503 0.286992 -2.081159 15.383181 -0.000000 9.545628 -0.000000 0.636037 -4.369236 0.048457 0.450657 -0.004710 -15.284573 -0.464381 -2.397058 -16.085691 -0.000000 9.582014 0.000000 -0.582432 -5.703639 -0.057885 -0.557548 1.611412 16.118815
0.087063 77.969315 0.276834 0.036931 -3.302747 -0.065182 -0.000000 0.000000 -1.091822 0.453496 -0.000000 -0.000000 -0.000000 8.944934 -0.000000 16.002441 -3.955494 -0.011447 -1.497332 -0.000000 -25.739628 0.000001 68.566301 -0.000001 5.791197 -3.291492 0.041810 -16.003130 -0.509512 0.011420 2.980317 0.000000 23.922522 -0.000003 72.127204 0.000003 -7.865903 2.657230 -6.203489 0.256385 -1.884074 15.382352 -0.000000 9.472025 0.000001 0.601690 -4.367285 0.045821 0.488060 -0.024120 -15.269885 -0.473718 -2.224336 -16.035346 0.000000 9.549532 0.000001 -0.563956 -5.757138 -0.056573 -0.548341 1.639819 16.085985
0.108597 78.070946 0.318940 0.312776 -3.630909 -0.026959 -0.000000 -0.000000 -0.938959 0.444178 -0.000000 0.000000 -0.000000 9.063317 0.000000 16.002414 -4.088313 -0.011449 -1.781875 -0.000000 -25.676737 0.000001 68.899053 -0.000001 5.801458 -3.697572 -0.841255 -16.003168 -0.319088 0.011420 3.099094 0.000000 23.979970 0.000001 71.536277 -0.000001 -6.848314 2.696403 -6.272144 -0.107003 -2.147417 14.864607 0.000000 9.639950 -0.000000 0.851934 -4.399642 0.065359 0.429750 0.399142 -14.766356 -0.616733 -2.058546 -15.670386 0.000000 9.806077 -0.000000 -0.541213 -5.932530 -0.055940 -0.706652 1.686420 15.697603
0.110020 78.106560 0.462167 0.255807 -3.418320 -0.277539 -0.000000 0.000000 -1.061594 0.435903 0.000000 0.000000 0.000000 9.147483 0.000000 16.002377 -4.284395 -0.011452 -1.943298 -0.000000 -25.677260 0.000001 68.923862 -0.000001 5.641555 -4.020209 -1.047014 -16.003133 -0.489391 0.011420 3.388718 0.000000 23.785873 -0.000002 72.016483 0.000002 -5.962958 2.520327 -6.374817 -0.207291 -2.152522 14.650018 0.000000 9.876400 -0.000000 1.094119 -4.435716 0.084630 0.252373 -0.033849 -14.293221 -0.710149 -2.081120 -15.368121 -0.000000 9.987348 -0.000000 -0.386195 -6.060198 -0.040773 -0.650308 1.490722 15.644520
0.128675 78.123505 0.900095 0.257558 -3.208655 -0.568392 -0.000000 0.000000 -0.835208 0.355243 -0.000000 -0.000000 -0.000000 9.235235 -0.000000 16.002479 -3.761545 -0.011444 -1.805067 -0.000000 -25.798200 0.000003 68.381827 -0.000003 5.250253 -3.496148 -0.883164 -16.003092 -0.691463 0.011421 3.412168 -0.000000 23.543363 -0.000001 71.374585 0.000001 -5.156278 2.731615 -6.332659 -0.482581 -2.314245 14.552599 0.000000 10.073810 -0.000000 1.379955 -4.920058 0.118376 0.196517 0.143555 -13.898641 -0.757282 -1.901806 -15.211314 0.000000 9.953261 0.000000 0.044700 -6.432622 0.005007 -0.932760 1.530963 15.784915
0.161537 78.142738 1.731505 0.265420 -2.957491 -0.630663 0.000000 0.000000 -0.625473 0.247803 -0.000000 -0.000000 -0.000000 9.126087 -0.000000 16.002618 -3.072165 -0.011436 -1.602115 0.000000 -26.362933 0.000003 67.784815 -0.000003 5.422643 -3.448038 -0.868923 -16.003196 -0.173068 0.011420 3.523282 -0.000000 23.750898 -0.000001 70.617349 0.000001 -4.887227 3.037673 -6.604379 -0.901538 -2.484732 14.302032 0.000000 10.239508 -0.000000 1.907468 -5.738483 0.190794 0.027873 0.625154 -13.589205 -0.667822 -1.596409 -14.718355 -0.000000 9.593918 0.000000 0.079064 -6.836012 0.009410 -0.876992 1.737506 15.360830
0.275001 78.220657 3.386493 0.245180 -2.517931 -0.631843 0.000000 -0.000000 -0.093430 0.065652 -0.000000 -0.000000 0.000000 8.920247 0.000000 16.002891 -1.706779 -0.011425 -1.515687 0.000000 -27.786860 0.000001 66.577766 -0.000001 4.721447 -2.822356 -0.608938 -16.003321 0.461178 0.011420 3.502479 -0.000000 24.261626 -0.000000 68.850235 0.000001 -4.309883 3.341393 -7.356926 -1.583127 -3.059843 13.411250 0.000000 11.072991 0.000000 2.733526 -7.545843 0.359233 -0.144287 1.601715 -12.731291 -0.596329 -1.266702 -13.587401 0.000000 9.194623 0.000000 0.583415 -7.810388 0.079286 -1.152500 2.367979 14.239088
